<svg aria-hidden="true" style="position: absolute; width: 0; height: 0; overflow: hidden;" version="1.1" xmlns="http://www.w3.org/2000/svg" xmlns:xlink="http://www.w3.org/1999/xlink">
<defs>
<symbol id="icon-Ellipse-3" viewBox="0 0 32 32">
<path fill="#ffa5ba" style="fill: var(--color1, #ffa5ba)" d="M32 16c0 8.837-7.163 16-16 16s-16-7.163-16-16c0-8.837 7.163-16 16-16s16 7.163 16 16z"></path>
</symbol>
<symbol id="icon-Group-16" viewBox="0 0 30 32">
<path fill="#fff" style="fill: var(--color2, #fff)" d="M29.922 6.234c0 3.443-2.791 6.234-6.234 6.234s-6.234-2.791-6.234-6.234c0-3.443 2.791-6.234 6.234-6.234s6.234 2.791 6.234 6.234z"></path>
<path fill="#d41443" style="fill: var(--color3, #d41443)" d="M8.252 19.905c0 0.14-0.389 0.255-1.166 0.344-0.777 0.076-1.555 0.115-2.332 0.115s-1.281-0.032-1.51-0.096c-0.217-0.076-0.325-0.197-0.325-0.363v-8.258h-1.95c-0.217 0-0.325-0.465-0.325-1.396s0.108-1.772 0.325-2.523c0.064-0.242 0.739-0.465 2.026-0.669s2.275-0.306 2.963-0.306 1.147 0.025 1.376 0.076 0.401 0.115 0.516 0.191c0.115 0.064 0.204 0.14 0.268 0.229 0.089 0.14 0.134 0.274 0.134 0.401v12.254zM15.691 12.010c0.115-0.102 0.421-0.236 0.918-0.401s1.058-0.249 1.682-0.249c0.637 0 1.172 0.096 1.606 0.287 0.446 0.179 0.79 0.408 1.032 0.688 0.255 0.281 0.453 0.631 0.593 1.051 0.229 0.688 0.344 1.389 0.344 2.103s-0.032 1.255-0.096 1.625c-0.051 0.357-0.191 0.758-0.421 1.204-0.219 0.449-0.522 0.826-0.892 1.123l-0.006 0.005c-0.37 0.306-0.905 0.567-1.606 0.784-0.688 0.204-1.497 0.306-2.428 0.306-2.001 0-3.511-0.548-4.531-1.644-1.019-1.109-1.529-2.893-1.529-5.353 0-2.473 0.478-4.25 1.434-5.334 0.956-1.096 2.409-1.644 4.359-1.644 1.338 0 2.498 0.102 3.479 0.306 0.994 0.191 1.491 0.421 1.491 0.688 0 0.331-0.128 0.911-0.382 1.74-0.242 0.828-0.465 1.243-0.669 1.243-0.064 0-0.255-0.032-0.573-0.096-0.866-0.179-1.657-0.268-2.37-0.268s-1.172 0.179-1.376 0.535c-0.204 0.344-0.306 0.854-0.306 1.529 0.051-0.064 0.134-0.14 0.249-0.229zM16.112 13.73c-0.37 0-0.554 0.688-0.554 2.065 0 1.364 0.185 2.045 0.554 2.045 0.395 0 0.593-0.682 0.593-2.046 0-1.376-0.197-2.065-0.593-2.065z"></path>
<path fill="#fff" style="fill: var(--color2, #fff)" d="M9.658 30.407c-0.276 0-0.524-0.062-0.745-0.186-0.217-0.129-0.393-0.309-0.514-0.522l-0.004-0.007c-0.124-0.229-0.186-0.495-0.186-0.797s0.062-0.566 0.186-0.791c0.128-0.229 0.3-0.405 0.518-0.529 0.208-0.121 0.457-0.192 0.724-0.192 0.007 0 0.015 0 0.022 0h-0.001c0.341 0 0.628 0.089 0.861 0.268 0.237 0.179 0.386 0.417 0.448 0.716h-0.5c-0.035-0.175-0.14-0.321-0.283-0.412l-0.003-0.002c-0.151-0.101-0.328-0.151-0.529-0.151-0.163 0-0.316 0.041-0.46 0.122s-0.26 0.204-0.349 0.367-0.134 0.364-0.134 0.605 0.044 0.442 0.134 0.605c0.089 0.163 0.206 0.287 0.349 0.372 0.143 0.081 0.297 0.122 0.46 0.122 0.202 0 0.378-0.049 0.529-0.145 0.151-0.101 0.246-0.242 0.285-0.425h0.5c-0.057 0.292-0.216 0.539-0.439 0.708l-0.003 0.002c-0.237 0.182-0.526 0.273-0.867 0.273zM12.61 30.407c-0.24 0-0.44-0.041-0.599-0.122s-0.277-0.19-0.355-0.326c-0.073-0.125-0.116-0.276-0.116-0.436 0-0.002 0-0.004 0-0.006v0c0-0.295 0.113-0.522 0.337-0.681s0.532-0.239 0.919-0.239h0.78v-0.035c0-0.252-0.066-0.442-0.198-0.57-0.132-0.132-0.308-0.198-0.529-0.198-0.19 0-0.355 0.049-0.495 0.145-0.135 0.093-0.221 0.231-0.256 0.413h-0.5c0.020-0.209 0.089-0.386 0.209-0.529 0.123-0.141 0.277-0.252 0.452-0.323l0.008-0.003c0.183-0.078 0.377-0.116 0.582-0.116 0.404 0 0.707 0.108 0.908 0.326 0.206 0.213 0.308 0.499 0.308 0.855v1.775h-0.436l-0.029-0.518c-0.087 0.17-0.209 0.31-0.357 0.417l-0.003 0.002c-0.155 0.112-0.364 0.169-0.628 0.169zM12.685 29.994c0.186 0 0.345-0.049 0.477-0.145 0.136-0.097 0.239-0.223 0.308-0.378s0.105-0.318 0.105-0.489v-0.006h-0.739c-0.287 0-0.49 0.050-0.611 0.151-0.107 0.084-0.175 0.214-0.175 0.359 0 0.003 0 0.005 0 0.008v-0c0 0.151 0.054 0.273 0.163 0.367 0.113 0.089 0.27 0.134 0.471 0.134zM14.954 30.338v-2.473h-0.436v-0.413h0.436v-0.5c0-0.279 0.070-0.483 0.21-0.611s0.343-0.192 0.611-0.192h0.291v0.419h-0.215c-0.148 0-0.252 0.031-0.314 0.093-0.062 0.058-0.093 0.159-0.093 0.303v0.489h0.71v0.413h-0.71v2.473h-0.489zM17.919 30.407c-0.275 0-0.519-0.062-0.733-0.186-0.214-0.13-0.385-0.309-0.503-0.522l-0.004-0.007c-0.12-0.225-0.18-0.49-0.18-0.797 0-0.303 0.060-0.566 0.18-0.791 0.121-0.229 0.287-0.405 0.5-0.529 0.217-0.128 0.468-0.192 0.751-0.192 0.279 0 0.52 0.064 0.721 0.192 0.206 0.124 0.363 0.289 0.471 0.495 0.103 0.19 0.164 0.416 0.164 0.656 0 0.047-0.002 0.094-0.007 0.141l0-0.006v0.145h-2.298c0.012 0.221 0.062 0.405 0.151 0.553 0.093 0.143 0.208 0.252 0.343 0.326 0.14 0.074 0.287 0.111 0.442 0.111 0.202 0 0.371-0.047 0.506-0.14s0.235-0.219 0.297-0.378h0.483c-0.079 0.272-0.236 0.501-0.445 0.667l-0.003 0.002c-0.217 0.175-0.496 0.262-0.838 0.262zM17.919 27.795c-0.233 0-0.44 0.072-0.623 0.215-0.178 0.14-0.281 0.345-0.308 0.617h1.815c-0.012-0.26-0.101-0.463-0.268-0.611s-0.372-0.221-0.617-0.221zM21.039 30.407c-0.345 0-0.632-0.087-0.861-0.262s-0.363-0.411-0.401-0.71h0.5c0.031 0.151 0.111 0.283 0.239 0.396 0.132 0.108 0.308 0.163 0.529 0.163 0.206 0 0.357-0.043 0.454-0.128 0.097-0.089 0.145-0.194 0.145-0.314 0-0.175-0.064-0.291-0.192-0.349-0.124-0.058-0.3-0.111-0.529-0.157-0.18-0.037-0.336-0.083-0.486-0.141l0.021 0.007c-0.152-0.056-0.282-0.139-0.39-0.245l0 0c-0.105-0.108-0.157-0.25-0.157-0.425 0-0.252 0.093-0.458 0.279-0.617 0.19-0.163 0.446-0.244 0.768-0.244 0.306 0 0.557 0.078 0.751 0.233 0.198 0.151 0.312 0.369 0.343 0.652h-0.483c-0.020-0.148-0.083-0.262-0.192-0.343-0.105-0.085-0.246-0.128-0.425-0.128-0.175 0-0.31 0.037-0.407 0.111-0.085 0.065-0.14 0.167-0.14 0.281 0 0.003 0 0.007 0 0.010v-0c0 0.116 0.060 0.208 0.18 0.273 0.124 0.066 0.291 0.122 0.5 0.169 0.179 0.039 0.347 0.087 0.506 0.145 0.163 0.054 0.295 0.138 0.396 0.25 0.105 0.108 0.157 0.268 0.157 0.477 0.004 0.26-0.095 0.475-0.297 0.646-0.198 0.167-0.468 0.25-0.809 0.25z"></path>
</symbol>
<symbol id="icon-Group-23" viewBox="0 0 39 32">
<path fill="#fff" style="fill: var(--color2, #fff)" d="M38.737 6.316c0 3.488-2.828 6.316-6.316 6.316s-6.316-2.828-6.316-6.316c0-3.488 2.828-6.316 6.316-6.316s6.316 2.828 6.316 6.316z"></path>
<path fill="#d41443" style="fill: var(--color3, #d41443)" d="M8.601 11.475c-0.362 0-0.678-0.426-0.949-1.278-0.258-0.852-0.387-1.672-0.387-2.46 0-0.181 0.2-0.381 0.6-0.6 0.4-0.232 1.007-0.439 1.821-0.62s1.698-0.271 2.653-0.271c3.706 0 5.559 1.298 5.559 3.893 0 0.723-0.155 1.401-0.465 2.034s-0.652 1.143-1.027 1.53c-0.375 0.375-0.813 0.723-1.317 1.046-0.581 0.362-1.136 0.645-1.666 0.852h3.874c0.077 0 0.161 0.039 0.252 0.116 0.091 0.064 0.187 0.271 0.291 0.62 0.103 0.336 0.155 0.762 0.155 1.278 0 0.504-0.032 0.93-0.097 1.278-0.064 0.336-0.142 0.581-0.232 0.736-0.194 0.349-0.368 0.536-0.523 0.562l-0.097 0.019h-8.483c-0.813 0-1.22-1.272-1.22-3.816 0-0.284 0.839-1.065 2.518-2.344 0.646-0.476 1.215-0.978 1.738-1.525l0.005-0.005c0.529-0.555 0.794-1.007 0.794-1.356 0-0.387-0.291-0.581-0.872-0.581s-1.195 0.149-1.84 0.445c-0.633 0.297-0.994 0.445-1.085 0.445zM30.395 9.868c0 1.304-0.517 2.279-1.549 2.925 0.142 0.064 0.323 0.219 0.542 0.465 0.211 0.219 0.402 0.46 0.57 0.717l0.011 0.019c0.4 0.633 0.6 1.381 0.6 2.247 0 1.42-0.51 2.466-1.53 3.138s-2.421 1.007-4.203 1.007c-0.878 0-1.711-0.071-2.499-0.213-0.775-0.155-1.368-0.323-1.782-0.504-0.413-0.194-0.62-0.368-0.62-0.523 0-0.71 0.077-1.336 0.232-1.879s0.329-0.923 0.523-1.143c0.194-0.232 0.381-0.349 0.562-0.349 0.051 0 0.394 0.116 1.027 0.349s1.252 0.349 1.859 0.349c0.62 0 0.93-0.194 0.93-0.581 0-0.529-0.652-0.813-1.956-0.852-0.517-0.013-0.801-0.026-0.852-0.039-0.271-0.091-0.407-0.659-0.407-1.704s0.136-1.621 0.407-1.724c0.051-0.026 0.336-0.039 0.852-0.039 1.304-0.026 1.956-0.291 1.956-0.794 0-0.387-0.284-0.581-0.852-0.581-0.555 0-1.175 0.136-1.859 0.407s-1.059 0.407-1.123 0.407c-0.297 0-0.568-0.432-0.813-1.298s-0.368-1.478-0.368-1.84c0-0.336 0.375-0.678 1.123-1.027 0.826-0.375 2.040-0.562 3.641-0.562 3.719 0 5.578 1.207 5.578 3.622z"></path>
<path fill="#fff" style="fill: var(--color2, #fff)" d="M0.736 30.316v-2.505h-0.442v-0.419h0.442v-0.507c0-0.283 0.071-0.489 0.212-0.619s0.348-0.195 0.619-0.195h0.295v0.424h-0.218c-0.149 0-0.255 0.032-0.318 0.094-0.063 0.059-0.094 0.161-0.094 0.307v0.495h0.719v0.419h-0.719v2.505h-0.495zM3.757 30.387c-0.275 0-0.523-0.063-0.743-0.189-0.221-0.128-0.399-0.308-0.521-0.524l-0.004-0.007c-0.126-0.232-0.189-0.503-0.189-0.813s0.065-0.58 0.195-0.808c0.13-0.232 0.304-0.411 0.525-0.536 0.21-0.119 0.462-0.189 0.729-0.189 0.007 0 0.014 0 0.021 0h-0.001c0.275 0 0.523 0.063 0.743 0.189s0.393 0.304 0.519 0.536c0.13 0.228 0.195 0.497 0.195 0.808s-0.065 0.581-0.195 0.813c-0.127 0.224-0.307 0.404-0.524 0.527l-0.007 0.004c-0.207 0.119-0.456 0.189-0.721 0.189-0.008 0-0.015-0-0.023-0h0.001zM3.757 29.962c0.169 0 0.326-0.041 0.472-0.124s0.263-0.206 0.354-0.371c0.091-0.165 0.136-0.369 0.136-0.613s-0.045-0.448-0.136-0.613c-0.079-0.157-0.198-0.283-0.344-0.369l-0.004-0.002c-0.133-0.078-0.293-0.124-0.463-0.124-0.001 0-0.002 0-0.003 0h0c-0.169 0-0.326 0.041-0.472 0.124s-0.263 0.206-0.354 0.371c-0.091 0.165-0.136 0.369-0.136 0.613s0.045 0.448 0.136 0.613c0.091 0.165 0.206 0.289 0.348 0.371 0.145 0.083 0.301 0.124 0.466 0.124zM7.245 30.387c-0.275 0-0.523-0.063-0.743-0.189-0.221-0.128-0.399-0.308-0.521-0.524l-0.004-0.007c-0.126-0.232-0.189-0.503-0.189-0.813s0.065-0.58 0.195-0.808c0.13-0.232 0.304-0.411 0.525-0.536 0.21-0.119 0.462-0.189 0.729-0.189 0.007 0 0.014 0 0.021 0h-0.001c0.275 0 0.523 0.063 0.743 0.189s0.393 0.304 0.519 0.536c0.13 0.228 0.195 0.497 0.195 0.808s-0.065 0.581-0.195 0.813c-0.127 0.224-0.307 0.404-0.524 0.527l-0.007 0.004c-0.207 0.119-0.456 0.189-0.721 0.189-0.008 0-0.016-0-0.023-0h0.001zM7.245 29.962c0.169 0 0.326-0.041 0.472-0.124s0.263-0.206 0.354-0.371 0.136-0.369 0.136-0.613-0.045-0.448-0.136-0.613c-0.079-0.157-0.198-0.283-0.344-0.369l-0.004-0.002c-0.133-0.078-0.293-0.124-0.463-0.124-0.001 0-0.002 0-0.003 0h0c-0.169 0-0.326 0.041-0.472 0.124s-0.263 0.206-0.354 0.371c-0.090 0.165-0.136 0.369-0.136 0.613s0.045 0.448 0.136 0.613c0.091 0.165 0.206 0.289 0.348 0.371 0.146 0.083 0.301 0.124 0.466 0.124zM10.728 30.387c-0.291 0-0.546-0.067-0.766-0.2-0.216-0.135-0.388-0.32-0.503-0.541l-0.004-0.008c-0.118-0.232-0.177-0.495-0.177-0.79s0.061-0.556 0.183-0.784c0.122-0.232 0.291-0.413 0.507-0.542 0.216-0.133 0.472-0.2 0.766-0.2 0.24 0 0.452 0.049 0.637 0.147s0.328 0.236 0.43 0.413v-1.81h0.495v4.244h-0.448l-0.047-0.483c-0.094 0.141-0.23 0.269-0.407 0.383s-0.399 0.171-0.666 0.171zM10.781 29.956c0.197 0 0.37-0.045 0.519-0.136 0.153-0.094 0.271-0.224 0.354-0.389 0.087-0.165 0.13-0.358 0.13-0.578s-0.043-0.413-0.13-0.578c-0.080-0.161-0.201-0.292-0.35-0.381l-0.004-0.002c-0.142-0.089-0.314-0.142-0.499-0.142-0.007 0-0.014 0-0.020 0l0.001-0c-0.192 0-0.365 0.047-0.519 0.141-0.151 0.093-0.272 0.223-0.351 0.378l-0.002 0.005c-0.083 0.165-0.124 0.358-0.124 0.578s0.041 0.413 0.124 0.578c0.087 0.165 0.205 0.295 0.354 0.389 0.153 0.091 0.326 0.136 0.519 0.136zM15.819 30.316c-0.267 0-0.477-0.065-0.631-0.195s-0.23-0.363-0.23-0.701v-1.609h-0.507v-0.419h0.507l0.065-0.701h0.43v0.701h0.861v0.419h-0.861v1.609c0 0.185 0.037 0.31 0.112 0.377 0.075 0.063 0.206 0.094 0.395 0.094h0.307v0.424h-0.448zM16.943 30.316v-2.924h0.448l0.041 0.56c0.091-0.192 0.228-0.346 0.413-0.46s0.413-0.171 0.684-0.171v0.519h-0.136c-0.173 0-0.332 0.032-0.477 0.094-0.145 0.059-0.261 0.161-0.348 0.307s-0.13 0.346-0.13 0.601v1.474h-0.495zM21.643 27.392v2.924h-0.448l-0.029-0.525c-0.093 0.183-0.232 0.331-0.402 0.434l-0.005 0.003c-0.177 0.106-0.377 0.159-0.601 0.159-0.346 0-0.623-0.104-0.831-0.312-0.204-0.212-0.307-0.536-0.307-0.973v-1.709h0.495v1.656c0 0.609 0.252 0.914 0.755 0.914 0.252 0 0.46-0.091 0.625-0.271 0.169-0.185 0.253-0.446 0.253-0.784v-1.515h0.495zM23.802 30.387c-0.279 0-0.531-0.063-0.755-0.189-0.22-0.131-0.398-0.313-0.521-0.529l-0.004-0.007c-0.126-0.232-0.189-0.501-0.189-0.808s0.063-0.574 0.189-0.802c0.13-0.232 0.304-0.411 0.525-0.536 0.211-0.122 0.463-0.195 0.733-0.195 0.008 0 0.015 0 0.023 0h-0.001c0.346 0 0.637 0.091 0.872 0.271 0.24 0.181 0.391 0.422 0.454 0.725h-0.507c-0.036-0.178-0.141-0.326-0.286-0.417l-0.003-0.002c-0.153-0.102-0.332-0.153-0.536-0.153-0.165 0-0.32 0.041-0.466 0.124s-0.263 0.206-0.354 0.371-0.136 0.369-0.136 0.613 0.045 0.448 0.136 0.613c0.091 0.165 0.208 0.291 0.354 0.377 0.145 0.083 0.301 0.124 0.466 0.124 0.204 0 0.383-0.049 0.536-0.147 0.153-0.102 0.25-0.245 0.289-0.43h0.507c-0.057 0.296-0.219 0.546-0.445 0.717l-0.003 0.002c-0.24 0.185-0.533 0.277-0.878 0.277zM25.819 30.316v-4.244h0.496v2.552l1.197-1.232h0.607l-1.297 1.32 1.463 1.603h-0.631l-1.338-1.515v1.515h-0.495zM29.737 30.387c-0.349 0-0.64-0.088-0.872-0.265s-0.368-0.417-0.407-0.719h0.507c0.032 0.153 0.112 0.287 0.242 0.401 0.133 0.11 0.312 0.165 0.536 0.165 0.208 0 0.362-0.043 0.46-0.13 0.098-0.091 0.147-0.197 0.147-0.318 0-0.177-0.065-0.295-0.195-0.354-0.126-0.059-0.304-0.112-0.536-0.159-0.182-0.037-0.34-0.084-0.492-0.143l0.021 0.007c-0.154-0.056-0.286-0.141-0.395-0.248l0 0c-0.106-0.11-0.159-0.253-0.159-0.43 0-0.256 0.094-0.464 0.283-0.625 0.192-0.165 0.452-0.248 0.778-0.248 0.31 0 0.564 0.079 0.76 0.236 0.2 0.153 0.316 0.373 0.348 0.66h-0.489c-0.020-0.149-0.084-0.265-0.195-0.348-0.106-0.086-0.25-0.13-0.43-0.13-0.177 0-0.315 0.037-0.413 0.112-0.086 0.066-0.142 0.169-0.142 0.285 0 0.003 0 0.007 0 0.010v-0c0 0.118 0.061 0.211 0.183 0.277 0.126 0.067 0.295 0.124 0.507 0.171 0.181 0.039 0.352 0.088 0.513 0.147 0.165 0.055 0.299 0.139 0.401 0.253 0.106 0.11 0.159 0.271 0.159 0.483 0.004 0.263-0.096 0.481-0.301 0.654-0.2 0.169-0.474 0.253-0.819 0.253z"></path>
</symbol>
<symbol id="icon-ice-cream-made-with-passion" viewBox="0 0 70 32">
<path fill="#fff" style="fill: var(--color2, #fff)" d="M2.847 6.935c0 0.071-0.198 0.13-0.593 0.175-0.396 0.039-0.794 0.058-1.197 0.058-0.396 0-0.649-0.016-0.759-0.049-0.11-0.039-0.165-0.101-0.165-0.185v-6.051c0-0.143 0.188-0.282 0.564-0.418 0.376-0.143 0.798-0.214 1.265-0.214 0.415 0 0.687 0.088 0.817 0.263 0.045 0.065 0.068 0.13 0.068 0.195v6.226zM8.892 7.1c-0.259 0.058-0.525 0.097-0.798 0.117-0.266 0.026-0.529 0.039-0.788 0.039-0.253 0-0.451-0.006-0.593-0.019-0.136-0.013-0.318-0.045-0.545-0.097s-0.435-0.123-0.623-0.214c-0.188-0.091-0.389-0.224-0.603-0.399-0.208-0.175-0.383-0.383-0.525-0.623-0.331-0.558-0.496-1.278-0.496-2.16 0-0.59 0.091-1.112 0.272-1.566 0.188-0.454 0.412-0.804 0.671-1.051 0.266-0.246 0.567-0.444 0.905-0.593 0.545-0.246 1.093-0.37 1.644-0.37 0.791 0 1.359 0.065 1.702 0.195 0.156 0.058 0.295 0.149 0.418 0.272s0.185 0.302 0.185 0.535c0 0.233-0.058 0.529-0.175 0.885-0.11 0.357-0.272 0.535-0.486 0.535-0.065 0-0.305-0.052-0.72-0.156s-0.697-0.156-0.846-0.156c-0.227 0-0.422 0.126-0.584 0.379-0.156 0.253-0.233 0.613-0.233 1.080s0.068 0.83 0.204 1.090c0.143 0.259 0.327 0.389 0.554 0.389 0.162 0 0.454-0.065 0.876-0.195 0.428-0.136 0.678-0.204 0.749-0.204 0.201 0 0.357 0.185 0.467 0.554 0.117 0.37 0.175 0.668 0.175 0.895s-0.071 0.409-0.214 0.545c-0.136 0.13-0.334 0.227-0.593 0.292zM15.723 7.168h-4.125c-0.318 0-0.532-0.023-0.642-0.068s-0.165-0.117-0.165-0.214v-6.158c0-0.169 0.075-0.289 0.224-0.36 0.156-0.071 0.431-0.107 0.827-0.107h3.911c0.136 0 0.204 0.227 0.204 0.681 0 0.447-0.029 0.791-0.088 1.031-0.058 0.233-0.136 0.35-0.233 0.35-0.422 0-1.132-0.042-2.13-0.126v0.652c0.96-0.039 1.586-0.058 1.877-0.058 0.175 0 0.263 0.204 0.263 0.613s-0.036 0.72-0.107 0.934c-0.065 0.208-0.156 0.311-0.272 0.311l-1.761-0.039v0.623c1.128-0.084 1.907-0.126 2.335-0.126 0.136 0 0.204 0.227 0.204 0.681s-0.029 0.798-0.088 1.031c-0.058 0.233-0.136 0.35-0.233 0.35zM24.566 7.1c-0.259 0.058-0.525 0.097-0.798 0.117-0.266 0.026-0.529 0.039-0.788 0.039-0.253 0-0.451-0.006-0.593-0.019-0.136-0.013-0.318-0.045-0.545-0.097s-0.435-0.123-0.623-0.214c-0.188-0.091-0.389-0.224-0.603-0.399-0.208-0.175-0.383-0.383-0.525-0.623-0.331-0.558-0.496-1.278-0.496-2.16 0-0.59 0.091-1.112 0.272-1.566 0.188-0.454 0.412-0.804 0.671-1.051 0.266-0.246 0.567-0.444 0.905-0.593 0.545-0.246 1.093-0.37 1.644-0.37 0.791 0 1.359 0.065 1.702 0.195 0.156 0.058 0.295 0.149 0.418 0.272s0.185 0.302 0.185 0.535c0 0.233-0.058 0.529-0.175 0.885-0.11 0.357-0.272 0.535-0.486 0.535-0.065 0-0.305-0.052-0.72-0.156s-0.697-0.156-0.846-0.156c-0.227 0-0.422 0.126-0.584 0.379-0.156 0.253-0.233 0.613-0.233 1.080s0.068 0.83 0.204 1.090c0.143 0.259 0.328 0.389 0.555 0.389 0.162 0 0.454-0.065 0.876-0.195 0.428-0.136 0.678-0.204 0.749-0.204 0.201 0 0.357 0.185 0.467 0.554 0.117 0.37 0.175 0.668 0.175 0.895s-0.071 0.409-0.214 0.545c-0.136 0.13-0.334 0.227-0.593 0.292zM29.189 6.886c0 0.084-0.198 0.152-0.593 0.204s-0.795 0.078-1.197 0.078c-0.396 0-0.652-0.023-0.768-0.068-0.11-0.045-0.165-0.117-0.165-0.214v-6.255c0-0.169 0.211-0.289 0.632-0.36 0.428-0.071 0.966-0.107 1.615-0.107s1.067 0.003 1.255 0.010c0.195 0 0.421 0.010 0.681 0.029s0.464 0.052 0.613 0.097c0.156 0.045 0.324 0.104 0.506 0.175 0.188 0.071 0.334 0.165 0.438 0.282 0.104 0.11 0.204 0.243 0.302 0.399 0.175 0.279 0.263 0.678 0.263 1.197 0 0.512-0.088 0.947-0.263 1.304-0.169 0.35-0.396 0.616-0.681 0.798 0.746 1.174 1.119 1.92 1.119 2.237s-0.639 0.477-1.916 0.477c-0.37 0-0.626-0.016-0.768-0.049s-0.233-0.104-0.272-0.214l-0.632-2.004-0.165-0.010v1.994zM29.189 3.394h0.253c0.376 0 0.564-0.292 0.564-0.876 0-0.298-0.052-0.509-0.156-0.632-0.097-0.123-0.211-0.185-0.34-0.185h-0.321v1.693zM38.75 7.168h-4.125c-0.318 0-0.532-0.023-0.642-0.068s-0.165-0.117-0.165-0.214v-6.158c0-0.169 0.075-0.289 0.224-0.36 0.156-0.071 0.431-0.107 0.827-0.107h3.911c0.136 0 0.204 0.227 0.204 0.681 0 0.447-0.029 0.791-0.088 1.031-0.058 0.233-0.136 0.35-0.233 0.35-0.422 0-1.132-0.042-2.13-0.126v0.652c0.96-0.039 1.586-0.058 1.877-0.058 0.175 0 0.263 0.204 0.263 0.613s-0.036 0.72-0.107 0.934c-0.065 0.208-0.156 0.311-0.272 0.311l-1.761-0.039v0.623c1.128-0.084 1.907-0.126 2.335-0.126 0.136 0 0.204 0.227 0.204 0.681s-0.029 0.798-0.088 1.031c-0.058 0.233-0.136 0.35-0.233 0.35zM42.829 6.672c-0.013 0.188-0.113 0.318-0.302 0.389-0.181 0.071-0.512 0.107-0.992 0.107s-0.882-0.042-1.206-0.126c-0.318-0.091-0.477-0.204-0.477-0.34 0-0.156 0.289-1.148 0.866-2.977 0.577-1.835 0.908-2.892 0.992-3.171 0.032-0.084 0.292-0.152 0.778-0.204 0.493-0.058 1.018-0.088 1.576-0.088 0.564 0 0.876 0.097 0.934 0.292 1.226 4.073 1.839 6.142 1.839 6.206s-0.039 0.13-0.117 0.195c-0.181 0.143-0.541 0.214-1.080 0.214-1.148 0-1.735-0.136-1.761-0.409l-0.068-0.632h-0.934l-0.049 0.545zM43.608 4.279l-0.146-1.751h-0.214l-0.165 1.751h0.525zM49.214 7.168c-0.162 0-0.399 0-0.71 0-0.305 0-0.512-0.023-0.623-0.068s-0.165-0.117-0.165-0.214v-6.138c0-0.149 0.198-0.266 0.593-0.35 0.402-0.091 0.83-0.136 1.284-0.136s0.778 0.058 0.973 0.175c0.195 0.117 0.308 0.24 0.34 0.37l0.661 2.568h0.088l0.623-2.451c0.045-0.175 0.256-0.328 0.632-0.457 0.383-0.136 0.801-0.204 1.255-0.204s0.788 0.036 1.002 0.107c0.22 0.071 0.331 0.162 0.331 0.272v6.245c0 0.084-0.185 0.152-0.554 0.204s-0.82 0.078-1.352 0.078c-0.532 0-0.798-0.094-0.798-0.282 0-0.512 0.055-1.424 0.165-2.734h-0.088l-0.506 2.539c-0.019 0.097-0.101 0.169-0.243 0.214-0.136 0.045-0.344 0.068-0.623 0.068s-0.451-0.019-0.516-0.058c-0.058-0.039-0.097-0.114-0.117-0.224l-0.525-2.539h-0.088c0.117 1.336 0.175 2.247 0.175 2.734 0 0.169-0.405 0.263-1.216 0.282zM1.631 18.432c-0.162 0-0.399 0-0.71 0-0.305 0-0.512-0.023-0.623-0.068s-0.165-0.117-0.165-0.214v-6.138c0-0.149 0.198-0.266 0.593-0.35 0.402-0.091 0.83-0.136 1.284-0.136s0.778 0.058 0.973 0.175c0.195 0.117 0.308 0.24 0.34 0.37l0.661 2.568h0.088l0.623-2.451c0.045-0.175 0.256-0.328 0.632-0.457 0.383-0.136 0.801-0.204 1.255-0.204s0.788 0.036 1.002 0.107c0.221 0.071 0.331 0.162 0.331 0.272v6.245c0 0.084-0.185 0.152-0.554 0.204s-0.82 0.078-1.352 0.078c-0.532 0-0.798-0.094-0.798-0.282 0-0.512 0.055-1.424 0.165-2.734h-0.088l-0.506 2.539c-0.019 0.097-0.101 0.169-0.243 0.214-0.136 0.045-0.344 0.068-0.623 0.068s-0.451-0.019-0.516-0.058c-0.058-0.039-0.097-0.113-0.117-0.224l-0.525-2.539h-0.088c0.117 1.336 0.175 2.247 0.175 2.734 0 0.169-0.405 0.263-1.216 0.282zM11.767 17.936c-0.013 0.188-0.114 0.318-0.302 0.389-0.182 0.071-0.512 0.107-0.992 0.107s-0.882-0.042-1.206-0.126c-0.318-0.091-0.477-0.204-0.477-0.34 0-0.156 0.289-1.148 0.866-2.977 0.577-1.835 0.908-2.892 0.992-3.171 0.032-0.084 0.292-0.152 0.778-0.204 0.493-0.058 1.018-0.088 1.576-0.088 0.564 0 0.876 0.097 0.934 0.292 1.226 4.073 1.839 6.142 1.839 6.206s-0.039 0.13-0.117 0.195c-0.182 0.143-0.542 0.214-1.080 0.214-1.148 0-1.735-0.136-1.761-0.409l-0.068-0.632h-0.934l-0.049 0.545zM12.545 15.543l-0.146-1.751h-0.214l-0.165 1.751h0.525zM19.756 18.432h-2.296c-0.318 0-0.532-0.023-0.642-0.068s-0.165-0.12-0.165-0.224v-6.138c0-0.169 0.071-0.289 0.214-0.36 0.143-0.078 0.389-0.117 0.739-0.117h2.189c1.245 0 2.105 0.246 2.578 0.739 0.473 0.486 0.71 1.375 0.71 2.665s-0.246 2.199-0.739 2.724c-0.493 0.519-1.355 0.778-2.588 0.778zM19.678 12.975c-0.156 0-0.259 0.013-0.311 0.039v3.93l0.37 0.039c0.195 0 0.34-0.156 0.438-0.467 0.104-0.311 0.156-0.85 0.156-1.615s-0.052-1.278-0.156-1.537c-0.104-0.259-0.269-0.389-0.496-0.389zM29.090 18.432h-4.125c-0.318 0-0.532-0.023-0.642-0.068s-0.165-0.117-0.165-0.214v-6.158c0-0.169 0.075-0.289 0.224-0.36 0.156-0.071 0.431-0.107 0.827-0.107h3.911c0.136 0 0.204 0.227 0.204 0.681 0 0.447-0.029 0.791-0.088 1.031-0.058 0.233-0.136 0.35-0.233 0.35-0.422 0-1.132-0.042-2.13-0.126v0.652c0.96-0.039 1.586-0.058 1.878-0.058 0.175 0 0.263 0.204 0.263 0.613s-0.036 0.72-0.107 0.934c-0.065 0.208-0.156 0.311-0.272 0.311l-1.761-0.039v0.623c1.128-0.084 1.907-0.126 2.335-0.126 0.136 0 0.204 0.227 0.204 0.681s-0.029 0.798-0.088 1.031c-0.058 0.233-0.136 0.35-0.233 0.35zM35.733 18.432c-0.311 0-0.516-0.023-0.613-0.068s-0.165-0.123-0.204-0.233l-2.15-5.934c0-0.123 0.23-0.266 0.691-0.428 0.467-0.162 0.937-0.243 1.411-0.243 0.61 0 0.934 0.191 0.973 0.574l0.331 3.084h0.136l0.272-3.084c0.032-0.383 0.47-0.574 1.313-0.574 0.324 0 0.541 0.045 0.652 0.136 0.11 0.084 0.172 0.198 0.185 0.34l0.321 3.181h0.136l0.253-3.084c0.019-0.188 0.24-0.331 0.661-0.428 0.428-0.097 0.849-0.146 1.265-0.146 0.421 0 0.707 0.062 0.856 0.185 0.156 0.123 0.233 0.253 0.233 0.389l-2.082 6.031c-0.071 0.201-0.551 0.302-1.44 0.302-0.266 0-0.444-0.023-0.535-0.068s-0.153-0.123-0.185-0.233l-0.506-1.693h-0.117l-0.516 1.693c-0.058 0.201-0.506 0.302-1.342 0.302zM46.041 18.199c0 0.071-0.198 0.13-0.593 0.175-0.396 0.039-0.794 0.058-1.197 0.058-0.396 0-0.648-0.016-0.759-0.049-0.11-0.039-0.165-0.101-0.165-0.185v-6.051c0-0.143 0.188-0.282 0.564-0.418 0.376-0.143 0.798-0.214 1.265-0.214 0.415 0 0.688 0.088 0.817 0.263 0.046 0.065 0.068 0.13 0.068 0.195v6.226zM51.347 18.199c0 0.071-0.201 0.13-0.603 0.175-0.396 0.039-0.795 0.058-1.197 0.058-0.396 0-0.649-0.016-0.759-0.049-0.104-0.039-0.156-0.101-0.156-0.185v-4.183h-1.352c-0.071 0-0.133-0.091-0.185-0.272s-0.078-0.451-0.078-0.807c0-0.363 0.039-0.687 0.117-0.973 0.078-0.292 0.181-0.438 0.311-0.438h5.263c0.097 0 0.162 0.091 0.195 0.272 0.039 0.182 0.058 0.444 0.058 0.788s-0.036 0.668-0.107 0.973c-0.071 0.305-0.169 0.457-0.292 0.457h-1.216v4.183zM56.652 18.15c0 0.084-0.198 0.152-0.593 0.204-0.389 0.052-0.785 0.078-1.187 0.078-0.396 0-0.652-0.023-0.769-0.068-0.11-0.045-0.165-0.117-0.165-0.214v-5.983c0-0.162 0.188-0.308 0.564-0.438 0.376-0.136 0.785-0.204 1.226-0.204 0.616 0 0.924 0.146 0.924 0.438v2.14h0.866v-1.936c0-0.162 0.188-0.308 0.564-0.438 0.382-0.136 0.794-0.204 1.235-0.204 0.61 0 0.914 0.146 0.914 0.438v6.187c0 0.084-0.198 0.152-0.593 0.204s-0.791 0.078-1.187 0.078c-0.396 0-0.652-0.023-0.769-0.068-0.11-0.045-0.165-0.117-0.165-0.214v-2.228h-0.866v2.228z"></path>
<path fill="#d41443" style="fill: var(--color3, #d41443)" d="M4.466 31.313c0 0.129-0.302 0.233-0.906 0.312s-1.208 0.119-1.811 0.119c-0.604 0-0.99-0.035-1.158-0.104s-0.252-0.178-0.252-0.327v-9.547c0-0.475 1.425-0.713 4.276-0.713 1.722 0 2.861 0.119 3.415 0.356 0.673 0.277 1.128 0.653 1.366 1.128 0.317 0.614 0.475 1.401 0.475 2.361 0 1.317-0.228 2.272-0.683 2.866-0.327 0.435-0.653 0.718-0.98 0.846s-0.599 0.223-0.817 0.282c-0.208 0.049-0.47 0.089-0.787 0.119-0.436 0.040-1.029 0.059-1.782 0.059l-0.356-0.015v2.257zM4.481 26.592h0.356c0.188 0 0.337-0.025 0.445-0.074 0.109-0.059 0.203-0.208 0.282-0.445 0.089-0.248 0.134-0.589 0.134-1.024 0-0.445-0.050-0.782-0.148-1.010-0.089-0.238-0.183-0.376-0.282-0.416-0.089-0.049-0.198-0.074-0.327-0.074h-0.46v3.044zM14.643 30.987c-0.020 0.287-0.173 0.485-0.46 0.594-0.277 0.109-0.782 0.163-1.514 0.163s-1.346-0.064-1.841-0.193c-0.485-0.139-0.728-0.312-0.728-0.52 0-0.238 0.441-1.752 1.321-4.544 0.881-2.801 1.386-4.415 1.514-4.84 0.050-0.129 0.445-0.233 1.188-0.312 0.752-0.089 1.554-0.134 2.405-0.134 0.861 0 1.336 0.148 1.425 0.445 1.871 6.216 2.806 9.374 2.806 9.473s-0.059 0.198-0.178 0.297c-0.277 0.218-0.827 0.327-1.648 0.327-1.752 0-2.648-0.208-2.688-0.624l-0.104-0.965h-1.425l-0.074 0.831zM15.831 27.334l-0.223-2.673h-0.327l-0.252 2.673h0.802zM29.369 31.12c-0.297 0.218-0.713 0.401-1.247 0.549-0.525 0.139-1.208 0.208-2.049 0.208-0.831 0-1.623-0.069-2.376-0.208s-1.292-0.292-1.618-0.46c-0.327-0.168-0.49-0.332-0.49-0.49 0-0.554 0.079-1.128 0.238-1.722 0.158-0.604 0.346-0.906 0.564-0.906 0.040 0 0.45 0.134 1.232 0.401s1.371 0.401 1.767 0.401c0.396 0 0.653-0.040 0.772-0.119 0.119-0.089 0.178-0.213 0.178-0.371s-0.109-0.297-0.327-0.416c-0.218-0.129-0.49-0.238-0.817-0.327-0.327-0.099-0.683-0.238-1.069-0.416-0.376-0.178-0.728-0.376-1.054-0.594s-0.599-0.525-0.817-0.921c-0.218-0.406-0.327-0.866-0.327-1.381 0-2.197 1.312-3.296 3.935-3.296 0.98 0 1.826 0.064 2.539 0.193 0.713 0.119 1.213 0.257 1.5 0.416 0.297 0.148 0.445 0.297 0.445 0.445 0 0.515-0.124 1.069-0.371 1.663-0.238 0.594-0.47 0.891-0.698 0.891-0.039 0-0.168-0.045-0.386-0.134-0.653-0.287-1.198-0.431-1.633-0.431-0.425 0-0.718 0.040-0.876 0.119-0.148 0.079-0.223 0.203-0.223 0.371 0 0.158 0.109 0.292 0.327 0.401 0.218 0.099 0.485 0.193 0.802 0.282 0.327 0.079 0.678 0.208 1.054 0.386 0.386 0.168 0.742 0.371 1.069 0.609 0.327 0.228 0.599 0.554 0.817 0.98s0.327 0.921 0.327 1.485c0 0.594-0.153 1.133-0.46 1.618-0.188 0.297-0.431 0.554-0.728 0.772zM39.678 31.12c-0.297 0.218-0.713 0.401-1.247 0.549-0.525 0.139-1.208 0.208-2.049 0.208-0.831 0-1.623-0.069-2.376-0.208s-1.292-0.292-1.618-0.46-0.49-0.332-0.49-0.49c0-0.554 0.079-1.128 0.238-1.722 0.158-0.604 0.347-0.906 0.564-0.906 0.040 0 0.451 0.134 1.232 0.401s1.371 0.401 1.767 0.401c0.396 0 0.653-0.040 0.772-0.119 0.119-0.089 0.178-0.213 0.178-0.371s-0.109-0.297-0.327-0.416c-0.218-0.129-0.49-0.238-0.817-0.327-0.327-0.099-0.683-0.238-1.069-0.416-0.376-0.178-0.728-0.376-1.054-0.594s-0.599-0.525-0.817-0.921c-0.218-0.406-0.327-0.866-0.327-1.381 0-2.197 1.312-3.296 3.935-3.296 0.98 0 1.826 0.064 2.539 0.193 0.713 0.119 1.213 0.257 1.5 0.416 0.297 0.148 0.445 0.297 0.445 0.445 0 0.515-0.124 1.069-0.371 1.663-0.238 0.594-0.47 0.891-0.698 0.891-0.039 0-0.168-0.045-0.386-0.134-0.653-0.287-1.198-0.431-1.633-0.431-0.425 0-0.718 0.040-0.876 0.119-0.148 0.079-0.223 0.203-0.223 0.371 0 0.158 0.109 0.292 0.327 0.401 0.218 0.099 0.485 0.193 0.802 0.282 0.327 0.079 0.678 0.208 1.054 0.386 0.386 0.168 0.742 0.371 1.069 0.609 0.327 0.228 0.599 0.554 0.817 0.98s0.327 0.921 0.327 1.485c0 0.594-0.153 1.133-0.46 1.618-0.188 0.297-0.431 0.554-0.728 0.772zM46.572 31.388c0 0.109-0.302 0.198-0.906 0.267-0.604 0.059-1.213 0.089-1.826 0.089-0.604 0-0.99-0.025-1.158-0.074-0.168-0.059-0.252-0.153-0.252-0.282v-9.235c0-0.218 0.287-0.431 0.861-0.638 0.574-0.218 1.218-0.327 1.93-0.327 0.633 0 1.049 0.134 1.247 0.401 0.069 0.099 0.104 0.198 0.104 0.297v9.503zM53.378 31.878c-0.822 0-1.529-0.074-2.123-0.223-0.584-0.158-1.123-0.435-1.618-0.831-1-0.782-1.5-2.282-1.5-4.499 0-0.93 0.134-1.742 0.401-2.435 0.277-0.693 0.658-1.242 1.143-1.648 0.95-0.792 2.183-1.188 3.697-1.188 0.782 0 1.46 0.069 2.034 0.208 0.584 0.139 1.134 0.391 1.648 0.757 1.039 0.752 1.559 2.188 1.559 4.306 0 1.901-0.47 3.301-1.411 4.202s-2.217 1.351-3.831 1.351zM52.888 29.339c0.119 0.139 0.282 0.208 0.49 0.208s0.371-0.069 0.49-0.208c0.119-0.148 0.218-0.455 0.297-0.921 0.079-0.475 0.119-1.133 0.119-1.975s-0.039-1.49-0.119-1.945c-0.079-0.455-0.178-0.752-0.297-0.891s-0.282-0.208-0.49-0.208c-0.208 0-0.371 0.069-0.49 0.208s-0.218 0.436-0.297 0.891c-0.079 0.455-0.119 1.104-0.119 1.945s0.040 1.5 0.119 1.975c0.079 0.465 0.178 0.772 0.297 0.921zM64.318 31.313c0 0.129-0.307 0.233-0.921 0.312-0.604 0.079-1.208 0.119-1.811 0.119s-0.99-0.035-1.158-0.104c-0.168-0.069-0.252-0.178-0.252-0.327v-9.117c0-0.247 0.282-0.475 0.846-0.683 0.574-0.208 1.223-0.312 1.945-0.312 0.258 0 0.451 0.010 0.579 0.030 0.337 0.049 0.574 0.262 0.713 0.638l1.425 3.831h0.059v-3.504c0-0.247 0.282-0.475 0.846-0.683s1.208-0.312 1.93-0.312c0.624 0 1.020 0.119 1.188 0.356 0.119 0.168 0.178 0.322 0.178 0.46v9.295c0 0.129-0.307 0.233-0.921 0.312-0.604 0.079-1.272 0.119-2.004 0.119-0.722 0-1.118-0.094-1.188-0.282l-1.381-3.653h-0.074v3.504z"></path>
</symbol>
<symbol id="icon-icecreamgroup" viewBox="0 0 127 32">
<path fill="#fff" style="fill: var(--color2, #fff)" d="M31.36 16.32c0 8.66-6.877 15.68-15.36 15.68s-15.36-7.020-15.36-15.68c0-8.66 6.877-15.68 15.36-15.68s15.36 7.020 15.36 15.68z"></path>
<path fill="#d41443" style="fill: var(--color3, #d41443)" d="M11.849 0.561c-7.405 2.243-11.849 8.074-11.849 15.442 0 6.022 3.091 11.277 8.179 13.904 2.64 1.345 3.027 0.384 0.579-1.474-1.738-1.409-2.061-2.050-2.061-4.421 0-1.666-0.386-3.011-0.966-3.524-1.158-0.961-1.288-3.46-0.128-4.357 0.45-0.384 0.901-1.666 0.965-2.819 0.323-4.228 4.895-8.201 9.467-8.201s9.144 3.972 9.466 8.201c0.064 1.153 0.515 2.435 0.966 2.819 1.158 0.897 1.030 3.396-0.129 4.357-0.579 0.513-0.966 1.858-0.966 3.524 0 2.371-0.321 3.012-2.060 4.421-2.705 2.115-1.932 2.883 1.094 1.025 4.251-2.627 7.406-8.33 7.406-13.391 0-10.124-10.561-18.325-19.964-15.506z"></path>
<path fill="#d41443" style="fill: var(--color3, #d41443)" d="M12.687 7.994c-1.16 0.513-2.125 1.154-2.125 1.538 0 0.705 3.478 1.987 5.474 1.987s5.474-1.281 5.474-1.987c0-0.768-3.993-2.499-5.603-2.499-0.644 0.064-2.125 0.448-3.22 0.961zM45.851 11.326c-0.966 0.256-1.158 1.089-1.158 5.702v5.382h4.572l-0.193-5.574c-0.193-5.83-0.451-6.28-3.22-5.51zM53.386 11.646c-2.125 1.154-2.898 2.563-2.898 5.318 0 3.78 2.061 5.574 5.86 5.318 2.576-0.192 2.833-0.385 3.027-1.987s0.064-1.73-1.932-1.602c-2.061 0.192-2.125 0.064-2.125-2.051s0.129-2.243 1.997-2.050c1.545 0.128 2.125-0.128 2.382-1.089 0.129-0.641 0-1.538-0.387-1.923-0.901-0.897-4.25-0.897-5.924 0.064zM61.050 11.71c-0.194 0.513-0.258 3.012-0.129 5.638l0.193 4.742h4.186c3.864 0 4.186-0.128 4.379-1.474 0.193-1.217-0.064-1.409-2.060-1.409-1.288 0-2.319-0.32-2.319-0.641 0-0.385 0.902-0.641 1.932-0.641 1.481 0 1.932-0.256 1.932-1.281s-0.451-1.281-1.932-1.281c-1.030 0-1.932-0.32-1.932-0.641 0-0.385 0.837-0.641 1.868-0.641 1.804 0 3.027-1.409 2.254-2.627-0.58-0.961-7.985-0.705-8.371 0.256zM73.993 11.518c-2.125 0.833-2.962 2.307-3.027 4.998-0.065 4.613 1.803 6.215 6.633 5.766 1.868-0.128 2.189-0.448 2.189-1.794 0-1.409-0.257-1.602-2.061-1.409-1.546 0.128-2.125-0.064-2.447-1.089-0.58-1.987 0.644-3.588 2.705-3.588 1.224 0 1.868-0.384 1.996-1.217 0.451-2.051-2.833-3.011-5.989-1.666zM81.914 11.262c-0.323 0.256-0.515 2.883-0.515 5.83v5.382l2.060-0.192c1.61-0.128 2.19-0.577 2.512-1.795l0.386-1.602 0.515 1.73c0.387 1.474 0.837 1.795 2.512 1.795 2.769 0 3.091-0.449 1.932-2.691-0.708-1.41-0.837-2.115-0.322-2.627 0.837-0.833 0.902-3.652 0.129-4.87-0.644-1.025-8.371-1.858-9.208-0.961zM87.194 14.722c0 0.705-0.257 1.281-0.644 1.281-0.322 0-0.644-0.576-0.644-1.281s0.322-1.282 0.644-1.282c0.387 0 0.644 0.577 0.644 1.282zM93.441 11.326c-0.258 0.192-0.451 2.819-0.451 5.766v5.318h4.186c4.057 0 4.186-0.064 4.186-1.602 0-1.346-0.322-1.602-1.932-1.602-1.030 0-1.932-0.32-1.932-0.641 0-0.385 0.708-0.641 1.61-0.641 1.159 0 1.61-0.321 1.61-1.282s-0.451-1.281-1.61-1.281c-0.902 0-1.61-0.32-1.61-0.641 0-0.384 0.902-0.641 1.932-0.641 1.61 0 1.932-0.256 1.932-1.602 0-1.538-0.193-1.602-3.735-1.602-2.061 0-3.992 0.192-4.186 0.448zM106.45 11.262c-1.16 0.32-4.122 8.842-3.542 10.252 0.515 1.281 3.413 1.153 4.186-0.192 0.579-1.089 0.644-1.089 1.803 0 1.482 1.281 4.701 1.474 4.701 0.256 0-0.384-0.644-2.947-1.482-5.574-1.288-4.228-1.674-4.805-3.027-4.933-0.902 0-2.061 0.064-2.64 0.192zM108.253 17.092c-0.193 0.641-0.322 0.256-0.322-0.769 0-1.089 0.129-1.538 0.322-1.153 0.129 0.448 0.129 1.345 0 1.922zM115.723 11.326c-0.58 0.192-0.837 1.986-0.837 5.702v5.382h1.868c1.61 0 1.932-0.321 2.189-1.795 0.257-1.666 0.257-1.666 0.772-0.32 0.258 0.833 0.902 1.474 1.352 1.474 0.515 0 1.224-0.641 1.546-1.474 0.515-1.346 0.58-1.346 0.58 0.384 0.065 1.602 0.257 1.795 2.061 1.602l1.996-0.192 0.065-5.318c0.129-4.933 0.064-5.318-1.288-5.638-2.061-0.512-3.799 0.705-4.379 3.076l-0.451 2.115-0.708-2.243c-0.902-3.012-2.254-3.78-4.765-2.755zM9.016 11.967c-0.193 0.256-0.387 1.089-0.387 1.922 0 1.474 0.064 1.474 7.406 1.474 7.341 0 7.405 0 7.405-1.474 0-2.179-0.579-2.435-2.64-1.409-2.319 1.217-7.213 1.217-9.531 0-1.030-0.513-1.997-0.705-2.254-0.513zM7.148 17.669c-1.030 1.089 0.708 1.538 5.731 1.538h5.409v2.243c0 1.217 0.322 2.243 0.644 2.243 0.386 0 0.644-0.961 0.644-2.179 0-2.115 0.129-2.243 2.576-2.435 1.416-0.128 2.576-0.512 2.576-0.832 0-0.705-16.872-1.282-17.581-0.577z"></path>
<path fill="#d41443" style="fill: var(--color3, #d41443)" d="M8.629 23.308c0 3.524 1.224 4.229 7.406 4.229s7.405-0.705 7.405-4.229c0-1.538-0.322-2.179-0.966-2.179-0.579 0-0.965 0.577-0.965 1.538 0 3.588-4.895 3.908-5.603 0.384-0.322-1.858-0.515-1.922-3.799-1.922h-3.478v2.179zM12.622 30.548c0.387 2.051 6.955 1.859 6.955-0.128 0-0.705-0.837-0.961-3.606-0.961-3.027 0-3.542 0.192-3.348 1.089z"></path>
</symbol>
</defs>
</svg>
